# xmcd
# Track frame offsets:
# 150
# 12133
# 25988
# 37355
# 59098
# 78690
#
# Disc length: 1229 seconds
# Revision: 0
# Processed by: cddbd v1.4PL0 Copyright (c) Steve Scherf et al.
# Submitted via: VisiTrax 2.9.3.171 - For more info visit www.synapsa.com
#
DISCID=5004cb06
DTITLE=Various Artist - Country Starshiners
DYEAR=1900
DGENRE=
TTITLE0=Jeffory Alan Connors - Western Dawn
TTITLE1=Larry Pieper - Tear Drops Still Fall
TTITLE2=Junie Lou - Spinning In My Heart
TTITLE3=Bob Stamper - There's So Much To Remember
TTITLE4=Tom Booker - Missing In Action
TTITLE5=Randy Miles - Screamin' Demons
EXTD=
EXTT0=
EXTT1=
EXTT2=
EXTT3=
EXTT4=
EXTT5=
PLAYORDER=
